<?xml version="1.0" standalone="no"?>
<!DOCTYPE svg PUBLIC "-//W3C//DTD SVG 20010904//EN"
 "http://www.w3.org/TR/2001/REC-SVG-20010904/DTD/svg10.dtd">
<svg version="1.0" xmlns="http://www.w3.org/2000/svg"
 width="1541.000000pt" height="1233.000000pt" viewBox="0 0 1541.000000 1233.000000"
 preserveAspectRatio="xMidYMid meet">

<g transform="translate(0.000000,1233.000000) scale(0.100000,-0.100000)"
fill="#34e0a1" stroke="none">
<path d="M7325 11029 c-923 -75 -1806 -407 -2540 -957 -354 -266 -717 -628
-987 -988 -426 -567 -730 -1245 -873 -1949 -150 -738 -123 -1534 75 -2256 314
-1145 1036 -2138 2030 -2791 693 -456 1474 -722 2314 -788 166 -13 556 -13
722 0 941 74 1816 402 2559 958 354 266 717 628 987 988 760 1010 1092 2289
927 3564 -104 809 -434 1619 -927 2274 -270 360 -633 722 -987 988 -743 556
-1618 884 -2559 958 -148 12 -593 11 -741 -1z m875 -323 c74 -9 178 -23 230
-32 1155 -185 2198 -811 2909 -1743 443 -581 741 -1263 866 -1981 19 -113 54
-380 55 -422 0 -15 -350 -328 -368 -328 -10 0 -43 26 -72 58 -29 31 -126 131
-215 222 -89 91 -395 406 -680 700 -879 905 -869 896 -899 885 -16 -6 -90 -95
-197 -235 -1196 -1564 -1223 -1599 -1240 -1600 -3 0 -212 180 -464 401 -252
220 -468 407 -480 415 -14 9 -30 12 -42 7 -11 -5 -163 -168 -338 -363 -174
-195 -328 -366 -342 -380 l-25 -25 7 145 c3 80 13 184 21 232 9 58 11 95 5
112 -6 13 -8 26 -7 27 2 2 7 73 10 157 l7 152 -60 0 c-58 0 -61 -1 -61 -25 0
-31 -183 -224 -249 -263 -69 -40 -117 -35 -300 29 -114 40 -158 60 -169 77
-14 22 -13 60 13 420 16 219 29 417 29 442 0 39 -11 63 -88 189 -86 139 -89
145 -75 170 15 26 17 26 110 22 71 -2 97 0 106 10 5 8 21 69 34 137 23 122 24
124 56 137 18 8 33 16 33 17 0 2 -7 58 -15 123 -22 175 -21 190 15 215 34 24
37 40 14 75 -16 25 -11 43 31 100 8 12 11 26 6 33 -7 11 -20 10 -72 -6 -71
-23 -60 -26 -154 49 -246 199 -555 158 -677 -88 -28 -56 -33 -79 -36 -157 -5
-103 9 -173 57 -285 l29 -68 -30 -51 -30 -52 -413 0 -414 0 -198 -211 c-195
-208 -198 -211 -196 -252 1 -23 3 -53 5 -66 3 -21 -6 -27 -69 -55 -125 -53
-113 -7 -113 -449 0 -437 -8 -399 92 -438 92 -35 102 -51 179 -295 42 -131 78
-227 90 -240 12 -12 99 -82 194 -156 95 -73 180 -145 189 -159 8 -14 26 -92
40 -173 24 -142 28 -154 115 -345 l90 -197 81 -341 c44 -187 80 -350 80 -361
0 -37 -12 -53 -84 -106 -225 -168 -352 -339 -488 -659 -23 -55 -58 -109 -118
-182 l-85 -104 -184 -86 -185 -86 -18 23 c-10 13 -62 88 -116 168 -435 639
-679 1306 -774 2105 -21 175 -17 792 5 975 71 573 213 1053 454 1534 598 1195
1686 2069 2973 2390 274 68 412 90 815 130 102 10 667 -3 795 -18z m1881
-2855 c4 -3 156 -278 339 -610 l333 -604 -246 -487 c-136 -268 -247 -495 -247
-505 0 -24 29 -55 51 -55 10 0 163 72 340 161 340 169 358 175 381 124 10 -21
-12 -66 -211 -433 -125 -231 -221 -421 -221 -436 0 -26 24 -46 57 -46 10 0
376 308 814 684 l797 684 4 -77 c8 -123 -10 -473 -33 -651 -63 -501 -204 -982
-419 -1424 -73 -151 -183 -353 -204 -374 -8 -8 -86 -20 -222 -32 -1394 -130
-2853 -399 -4349 -804 l-240 -65 -42 25 c-37 21 -43 30 -43 58 0 36 158 2994
162 3038 2 20 84 119 292 353 246 277 293 325 316 325 15 0 33 -6 40 -14 11
-14 190 -632 190 -657 0 -7 -56 -79 -125 -161 -69 -81 -128 -155 -131 -162 -6
-16 -15 -18 200 49 65 20 121 33 125 28 4 -4 39 -119 77 -256 37 -136 72 -246
76 -245 4 2 467 577 1028 1278 561 701 1030 1283 1042 1293 19 16 52 16 69 -2z
m-3486 -1311 c76 -34 126 -50 154 -50 38 0 41 -2 37 -22 -3 -13 -8 -92 -11
-177 l-7 -154 -340 -381 c-188 -210 -349 -389 -358 -400 -17 -18 -21 -12 -99
150 -45 93 -87 189 -93 213 -16 62 7 620 28 690 20 67 70 131 124 159 42 21
57 22 248 22 l204 0 113 -50z m87 -2045 c-41 -770 -77 -1402 -78 -1404 -2 -2
-12 7 -23 20 -15 19 -21 47 -26 130 -4 58 -11 112 -15 120 -5 7 -26 18 -47 24
-38 10 -38 11 -46 75 -5 36 -32 342 -61 681 l-53 615 -106 217 -105 217 315
355 c174 196 317 354 318 353 1 -2 -32 -633 -73 -1403z m-885 135 c28 -16 64
-46 80 -67 l28 -36 0 -231 c1 -282 9 -321 119 -541 74 -148 75 -152 92 -280
15 -119 15 -157 3 -455 l-14 -324 -125 -39 c-69 -21 -286 -90 -482 -154 -328
-107 -360 -115 -383 -103 -42 22 -242 176 -364 279 l-115 96 96 3 c86 2 97 5
118 27 12 13 20 31 17 39 -3 8 -58 45 -121 83 -124 73 -121 68 -131 173 l-7
65 47 54 46 54 -6 66 -6 66 485 491 c404 410 486 497 490 525 4 19 13 76 21
127 8 51 17 97 20 102 10 17 38 11 92 -20z m5423 -1387 c-414 -480 -833 -823
-1345 -1101 -1290 -699 -2871 -728 -4190 -76 -214 105 -395 211 -375 218 8 3
191 46 405 95 1729 397 3441 685 5085 855 184 20 349 37 365 39 17 2 43 5 59
6 l28 1 -32 -37z"/>
</g>
</svg>
